<svg id="ui-calendar" xmlns="http://www.w3.org/2000/svg" xmlns:xlink="http://www.w3.org/1999/xlink" width="16" height="16" viewBox="0 0 16 16">
  <defs>
    <clipPath id="clip-path">
      <rect id="Ret칙ngulo_99097" data-name="Ret칙ngulo 99097" width="16" height="16" transform="translate(508 264.061)" fill="#a7a8ac" opacity="0"/>
    </clipPath>
  </defs>
  <g id="Grupo_de_m치scara_172" data-name="Grupo de m치scara 172" transform="translate(-508 -264.061)" clip-path="url(#clip-path)">
    <path id="Caminho_77394" data-name="Caminho 77394" d="M15.57,8.435a.421.421,0,0,0,.42-.421V4.768A2.63,2.63,0,0,0,13.6,1.923c-.054,0-.109-.008-.164-.009L12.4,1.963h-.005V.42a.421.421,0,0,0-.841,0l.05,1.492v0l-7.125.049H4.441V.42A.421.421,0,0,0,3.6.42l.05,1.494h-1.1A2.561,2.561,0,0,0,0,4.468v9.1a2.56,2.56,0,0,0,2.555,2.55H13.436a2.562,2.562,0,0,0,2.554-2.553V11.711a.42.42,0,1,0-.84,0v1.856a1.721,1.721,0,0,1-1.714,1.713H2.555A1.72,1.72,0,0,1,.841,13.566L.791,7.709,15.027,7.66h.123v.353A.422.422,0,0,0,15.57,8.435ZM.841,4.468A1.719,1.719,0,0,1,2.555,2.753L3.6,2.7h0V4.481a.42.42,0,0,0,.84,0L4.39,2.753l7.152-.05h.009V4.481a.421.421,0,1,0,.841,0l-.05-1.728h1.093a1.8,1.8,0,0,1,1.726,1.864c0,.048-.005.095-.011.147l.049,2.1v.005L.841,6.918Z" transform="translate(508 264)" fill="#a7a8ac"/>
  </g>
</svg>
